<?xml version="1.0" encoding="utf-8"?>
<!-- Generator: Adobe Illustrator 25.0.0, SVG Export Plug-In . SVG Version: 6.00 Build 0)  -->
<svg version="1.1"
	 id="Ebene_1" sketch:viewSource="773.75458 628.13416 268.76654 252.90033" xmlns:sketch="http://www.adobe.com/sketch" xmlns:sketch-meta="http://www.adobe.com/sketch/meta" xmlns:time="http://www.adobe.com/sketch/time"
	 xmlns="http://www.w3.org/2000/svg" xmlns:xlink="http://www.w3.org/1999/xlink" x="0px" y="0px" viewBox="0 0 268.8 252.9"
	 style="enable-background:new 0 0 268.8 252.9;" xml:space="preserve">
<style type="text/css">
	.st0{fill:#E6221B;}
</style>
<path class="st0" d="M103.9,244.8c-1.2-0.2-2.2-1-3-1.9c-6.5-0.9-6.1-9.4-2.2-13c-1.2-1.1-2-2.7-1.9-4.5c-5.1,0.9-10.1-3.1-9.6-8.5
	c-6.6,2-12-5.9-7.5-11.2c-7.2,4.7-16.5-2.4-10-9.7c-5.4,0.7-8.7-6.1-5-10c-3.3,0.5-7.1-1.6-7.9-4.9c-6.6,1.6-9.4-7.4-4.8-11.3
	c-0.2-0.4-0.3-0.8-0.4-1.2c-6.6-0.3-9.8-8-5.6-13c-7.3,1.1-13.9-5.2-11.1-12.5c-3-2.5-2.8-7.3-0.6-10.4c-2.9-0.1-5.7-1.8-6.8-4.6
	c-3.6-0.8-5.7-4.8-4.2-8.2c-5.2,2.8-14.4-0.2-11.7-7.3c2.7-5.2,7-9.3,10.5-13.9c0-0.2,0-0.4,0-0.6c0-0.4,0-0.7,0.1-1.1
	C5.4,100,3,85.2,16.7,77.6c0.8-2.3,2.7-3.9,4.3-5.7c-5.9,1.2-10.8-5-8-10.4c-6.6-0.6-6.9-8.6-2.7-12.4c-18.4-4.8,7.5-20.1,12.9-26
	c8.1-5.3,19.3-20.6,29.5-12.7C56.3,7,63,7,64.1,12.7c9.6,0.1,19.1,1.5,28.2,5.1c8.1,5.4,15.1,16.6,13.4,26.6
	c4.8-3.9,11.8,1.8,8.9,7.2c8.5-1.8,12.5,7,6.6,12.9c5.1,2,5,9.1,1.5,12.6c2.8,1.8,4.1,5.3,3,8.5c8.6-2.5,23.2-26.3,30.7-16.2
	c7.1-3.1,36-30,33.7-8.7c5-3.5,16.4-7.7,17.3,1.7c4.2-2.4,9.4-8.2,14.4-4.7c2.5,1.9,2.8,5.3,1.3,7.9c4.8-3.3,10.9,0.5,10.5,6.2
	c0.7,0,1.3,0,2,0.1c0.7,0.1,1.4,0.4,2,0.7c6.2-4.2,12.2,4,7.6,9.4c0.6,0.4,1.1,0.8,1.5,1.4c0.6,0.8,0.9,1.6,1.1,2.5
	c5.4-6.1,17.4-1.5,11.9,6.7c1.9,2.4,1.7,6-0.4,8.2c16.7,6.1-8.2,31.6-13.9,39.5c5.4-4.7,13.1,3.4,7.9,8.5
	c-27.7,26.6-59,49.3-92.5,67.9c-9.7,3-21.2,21.2-30.9,17.1C121.6,237.5,113.4,245.7,103.9,244.8z M105.5,210.2
	c-0.4,0.4-0.7,0.8-1.1,1.2c4.6-1.8,10.5-4.1,14.1-6.7c3.4-3,6.7-6,10.2-8.9C121.3,200.9,112,203.8,105.5,210.2z M129.5,180.6
	c-2.7,2-5.4,4-8.1,6c34.4-20.8,67.4-44,99.1-68.8c-2.3-1.2-3.8-4.2-2.9-6.7c-1.3-0.2-2.5-0.7-3.4-1.6c-0.6-0.6-1.1-1.4-1.4-2.3
	c-3.2,0.9-6.8-1.6-7.1-4.9c-6.6-0.7-6.1-8.4-2.3-12.2c-4.5,4.1-12.9,5.2-14-2.5c-6.3,4-21.2,12.5-20.7-1c-0.1,0.1-0.2,0.2-0.4,0.2
	c-0.2,0.2-0.5,0.3-0.7,0.5c0.4,9.3-20.3,22.6-26.5,30.7c21.2,6.2-36.6,39.6-41.5,48.2c8.6-4,45.7-41.6,51.1-25.9
	c0.8,2.6-0.1,5.5-2.3,7.1c-16.1,12.6-35.1,21.6-49.4,36.4c18.6-8.2,34.1-21.6,52.1-30.7c2.4-1,5.2-0.3,6.8,1.8
	C165.3,164.7,135.7,175,129.5,180.6z M207,145.2c-8.9,7.3-17.7,14.7-26.4,22.2c-2.3,2-4.6,3.9-6.8,5.9
	c22.5-15.6,45.6-30.5,66.2-48.7c-7.8,4.3-20.2,21-29.1,17.3C209.6,143,208.3,144.1,207,145.2z M69.3,142.6c1.3,1.7,1.6,4.2,1,6.2
	c-0.1,0.4-0.3,0.8-0.4,1.2c4.4-2.1,9.7-5.6,13.3-0.8c22.6-15.9,41.2-36.6,62.2-54.5c-0.7-1.3-0.9-3-0.5-4.4
	c-5.6,2.9-10.1,6.9-13.7,12.1c-3.2,5.6-11.7,12.2-14.7,2.9c-11.4,4.3-12.8-9.4-6.5-15.9c-4,0.1-7-4.3-5.5-8
	c-3.4-0.5-6.4-4.1-5.3-7.6c-3.8,3.8-11.1,3.4-11.6-2.8c-12.4,8.1-25,16-35.6,26.5c0.3,0.3,0.5,0.6,0.8,1c0.9,1.5,1,3.4,0.4,5
	c1.7,1.7,2.1,4.4,1.2,6.5c2.4,1.4,3.4,4.8,3.2,7.6c1.9,3.2-0.2,6.9-2.6,9.2c7.3,1.4,5.4,9.8,0.9,13.4
	C60.3,137.1,66.1,138.6,69.3,142.6z M48.7,83.3c12-8.3,23.6-18.1,35.9-25.8c0.4-1,0.9-1.9,1.6-2.8c0.4-0.7,0.9-1.4,1.4-2.1
	C73.6,61.5,60.6,71.8,48.7,83.3z M90.2,33c1,1,1.5,2.2,1.6,3.5c0.3-0.1,0.6-0.3,0.9-0.4c-0.8-1.6-1.6-3.1-2.6-4.5
	c-0.2,0.3-0.4,0.5-0.7,0.8C89.8,32.5,90,32.7,90.2,33z"/>
<path d="M109.5,252.8c-7.8,1-9.2-11.2-1.1-11.5c15.7-2.7,30.5-10.4,45.1-17c48.4-27,123.4-77.5,98.6-141.9
	c-15.5-28.9-55.4-34.5-82-17.8c-11.9,5.8-22.4,14-32.4,22.5c-5.3,4.5-12.7-3.9-7.6-8.6c30.6-28.8,78.1-50.1,115.6-20.9
	c18.8,13.3,25.8,37.6,22.3,59.7C260,180.8,167.4,239.6,109.5,252.8z"/>
<path d="M91.5,250.6c-20.1-21.3-36.8-45.2-51.9-70.1c-15.3-23.2-28.6-48-34.3-75.3C0.8,81.9-4.4,56,6.4,33.8
	C16.2,14.5,35.8-1.4,58.2,0.1c32.6,0.2,87.5,47.5,78.7,81.5c-3,4.3-10.3,2.1-10.2-3.3c1.7-6.8-2.2-13.5-4.8-19.7
	c-15.3-27.1-50.3-57.8-83-42.8C1,36.1,10.9,85,21,119c8,25.3,23.3,47.2,37.4,69.5c9.8,15.5,20.3,30.5,32.5,44.2
	c3,3.5,6.1,7,9.2,10.5C104.5,248.3,96.2,255.8,91.5,250.6z"/>
<path d="M105.9,101.7C92.6,90.6,79.5,79,66.8,67.2c-3.9-3.4-7.9-6.7-11.8-10c-5.7-4.4,1.1-13.4,6.9-8.9c3.2,2.4,6.4,4.8,9.4,7.4
	c9.3,7.9,18,16.4,27,24.5c5.6,5.7,13.8,9.4,17.6,16.5C117.5,102.5,109.6,106.5,105.9,101.7z"/>
<path d="M150.8,113.5c-3.8-8,7.8-10,12.8-13c12.9-5.6,26-10.9,38.3-17.5c5.3-2.6,10.2-6.1,15.6-8.7c7.5-2.9,11.1,8.7,3.6,10.9
	c-14,8.8-29,15.8-44.3,22.1C169.7,108.6,155.8,121.3,150.8,113.5z"/>
<path d="M83.4,148.2c-27.7-6.9-42.4-51.8-12.7-65.9c6.3-2,21.2-8.7,23.7,0.8c0,10.2-14.6,5.4-20.3,10.7c-18,11.4-3.2,41.7,14.9,43.6
	c19.9,1.9,19-21.9,15.7-35.4c-2.8-6.7,7.5-11,10.3-4.3C123.2,122.1,115.3,154.7,83.4,148.2z"/>
<path d="M166.2,157.7c-40.9-9.3-9.3-72.9-1.4-45.5c-10.3,11.3-12.3,35.4,8.8,34.5c9.4-1.2,19.7-6.2,23-15.6
	c1.8-7.8,4.4-21.1-5.3-24.6c-7.4-3.9-20.9,5.1-24.4-3.7c-1.3-11.1,17.5-8.5,24.5-8.1c20.7,3.2,21.7,29.9,13.7,45
	C198,152.8,180.8,160.3,166.2,157.7z"/>
<path d="M85.4,119c-6.3-1.8-4.9-13,1.8-12.9C96.6,106.2,95,123.4,85.4,119z"/>
<path d="M173.2,130.8c-9.5-2.2-3.4-16.7,4.9-11.3C185.6,122.3,180.2,133.8,173.2,130.8z M181.6,123.6c0-0.1,0-0.2,0-0.3
	c0-0.1-0.1-0.2-0.1-0.3C181.5,123.2,181.6,123.4,181.6,123.6z"/>
</svg>
